<svg preserveAspectRatio="none" width="100%" height="100%" overflow="visible" style="display: block;" viewBox="0 0 16 16" fill="none" xmlns="http://www.w3.org/2000/svg">
<g id="Location Icon 1">
<path id="Vector" d="M8 14.2167C7.84444 14.2167 7.68889 14.1889 7.53333 14.1333C7.37778 14.0778 7.23889 13.9944 7.11667 13.8833C6.39444 13.2167 5.75556 12.5667 5.2 11.9333C4.64444 11.3 4.18056 10.6861 3.80833 10.0917C3.43611 9.49722 3.15278 8.925 2.95833 8.375C2.76389 7.825 2.66667 7.3 2.66667 6.8C2.66667 5.13333 3.20278 3.80556 4.275 2.81667C5.34722 1.82778 6.58889 1.33333 8 1.33333C9.41111 1.33333 10.6528 1.82778 11.725 2.81667C12.7972 3.80556 13.3333 5.13333 13.3333 6.8C13.3333 7.3 13.2361 7.825 13.0417 8.375C12.8472 8.925 12.5639 9.49722 12.1917 10.0917C11.8194 10.6861 11.3556 11.3 10.8 11.9333C10.2444 12.5667 9.60556 13.2167 8.88333 13.8833C8.76111 13.9944 8.62222 14.0778 8.46667 14.1333C8.31111 14.1889 8.15556 14.2167 8 14.2167ZM8 8C8.36667 8 8.68056 7.86944 8.94167 7.60833C9.20278 7.34722 9.33333 7.03333 9.33333 6.66667C9.33333 6.3 9.20278 5.98611 8.94167 5.725C8.68056 5.46389 8.36667 5.33333 8 5.33333C7.63333 5.33333 7.31944 5.46389 7.05833 5.725C6.79722 5.98611 6.66667 6.3 6.66667 6.66667C6.66667 7.03333 6.79722 7.34722 7.05833 7.60833C7.31944 7.86944 7.63333 8 8 8Z" fill="var(--fill-0, #6E7C89)"/>
</g>
</svg>
