<svg preserveAspectRatio="none" width="100%" height="100%" overflow="visible" style="display: block;" viewBox="0 0 28 28" fill="none" xmlns="http://www.w3.org/2000/svg">
<g id="Menu Icon">
<path id="Vector" d="M4.66667 21C4.33611 21 4.05903 20.8882 3.83542 20.6646C3.61181 20.441 3.5 20.1639 3.5 19.8333C3.5 19.5028 3.61181 19.2257 3.83542 19.0021C4.05903 18.7785 4.33611 18.6667 4.66667 18.6667H23.3333C23.6639 18.6667 23.941 18.7785 24.1646 19.0021C24.3882 19.2257 24.5 19.5028 24.5 19.8333C24.5 20.1639 24.3882 20.441 24.1646 20.6646C23.941 20.8882 23.6639 21 23.3333 21H4.66667ZM4.66667 15.1667C4.33611 15.1667 4.05903 15.0549 3.83542 14.8313C3.61181 14.6076 3.5 14.3306 3.5 14C3.5 13.6694 3.61181 13.3924 3.83542 13.1688C4.05903 12.9451 4.33611 12.8333 4.66667 12.8333H23.3333C23.6639 12.8333 23.941 12.9451 24.1646 13.1688C24.3882 13.3924 24.5 13.6694 24.5 14C24.5 14.3306 24.3882 14.6076 24.1646 14.8313C23.941 15.0549 23.6639 15.1667 23.3333 15.1667H4.66667ZM4.66667 9.33333C4.33611 9.33333 4.05903 9.22153 3.83542 8.99792C3.61181 8.77431 3.5 8.49722 3.5 8.16667C3.5 7.83611 3.61181 7.55903 3.83542 7.33542C4.05903 7.11181 4.33611 7 4.66667 7H23.3333C23.6639 7 23.941 7.11181 24.1646 7.33542C24.3882 7.55903 24.5 7.83611 24.5 8.16667C24.5 8.49722 24.3882 8.77431 24.1646 8.99792C23.941 9.22153 23.6639 9.33333 23.3333 9.33333H4.66667Z" fill="var(--fill-0, #11181D)"/>
</g>
</svg>
