<svg preserveAspectRatio="none" width="100%" height="100%" overflow="visible" style="display: block;" viewBox="0 0 27.5373 27.5373" fill="none" xmlns="http://www.w3.org/2000/svg">
<g id="ErrorCircleIcon">
<path id="Vector" d="M13.7687 15.375L17.0961 18.7024C17.3064 18.9128 17.5742 19.018 17.8993 19.018C18.2243 19.018 18.4921 18.9128 18.7024 18.7024C18.9128 18.4921 19.018 18.2243 19.018 17.8993C19.018 17.5742 18.9128 17.3064 18.7024 17.0961L15.375 13.7687L18.7024 10.4412C18.9128 10.2309 19.018 9.96315 19.018 9.63806C19.018 9.31296 18.9128 9.04524 18.7024 8.83489C18.4921 8.62453 18.2243 8.51936 17.8993 8.51936C17.5742 8.51936 17.3064 8.62453 17.0961 8.83489L13.7687 12.1623L10.4412 8.83489C10.2309 8.62453 9.96315 8.51936 9.63806 8.51936C9.31296 8.51936 9.04524 8.62453 8.83489 8.83489C8.62453 9.04524 8.51936 9.31296 8.51936 9.63806C8.51936 9.96315 8.62453 10.2309 8.83489 10.4412L12.1623 13.7687L8.83489 17.0961C8.62453 17.3064 8.51936 17.5742 8.51936 17.8993C8.51936 18.2243 8.62453 18.4921 8.83489 18.7024C9.04524 18.9128 9.31296 19.018 9.63806 19.018C9.96315 19.018 10.2309 18.9128 10.4412 18.7024L13.7687 15.375ZM13.7687 25.2425C12.1814 25.2425 10.6898 24.9413 9.29384 24.339C7.89785 23.7366 6.68353 22.9191 5.65089 21.8864C4.61824 20.8538 3.80072 19.6395 3.19834 18.2435C2.59597 16.8475 2.29478 15.3559 2.29478 13.7687C2.29478 12.1814 2.59597 10.6898 3.19834 9.29384C3.80072 7.89785 4.61824 6.68353 5.65089 5.65089C6.68353 4.61824 7.89785 3.80072 9.29384 3.19834C10.6898 2.59597 12.1814 2.29478 13.7687 2.29478C15.3559 2.29478 16.8475 2.59597 18.2435 3.19834C19.6395 3.80072 20.8538 4.61824 21.8864 5.65089C22.9191 6.68353 23.7366 7.89785 24.339 9.29384C24.9413 10.6898 25.2425 12.1814 25.2425 13.7687C25.2425 15.3559 24.9413 16.8475 24.339 18.2435C23.7366 19.6395 22.9191 20.8538 21.8864 21.8864C20.8538 22.9191 19.6395 23.7366 18.2435 24.339C16.8475 24.9413 15.3559 25.2425 13.7687 25.2425Z" fill="var(--fill-0, #FD7565)"/>
</g>
</svg>
