<svg preserveAspectRatio="none" width="100%" height="100%" overflow="visible" style="display: block;" viewBox="0 0 22 22" fill="none" xmlns="http://www.w3.org/2000/svg">
<g id="NoticeCircleIcon">
<path id="Vector" d="M11 15.5833C11.2597 15.5833 11.4774 15.4955 11.6531 15.3198C11.8288 15.1441 11.9167 14.9264 11.9167 14.6667C11.9167 14.4069 11.8288 14.1892 11.6531 14.0135C11.4774 13.8378 11.2597 13.75 11 13.75C10.7403 13.75 10.5226 13.8378 10.3469 14.0135C10.1712 14.1892 10.0833 14.4069 10.0833 14.6667C10.0833 14.9264 10.1712 15.1441 10.3469 15.3198C10.5226 15.4955 10.7403 15.5833 11 15.5833ZM11 11.9167C11.2597 11.9167 11.4774 11.8288 11.6531 11.6531C11.8288 11.4774 11.9167 11.2597 11.9167 11V7.33333C11.9167 7.07361 11.8288 6.8559 11.6531 6.68021C11.4774 6.50451 11.2597 6.41667 11 6.41667C10.7403 6.41667 10.5226 6.50451 10.3469 6.68021C10.1712 6.8559 10.0833 7.07361 10.0833 7.33333V11C10.0833 11.2597 10.1712 11.4774 10.3469 11.6531C10.5226 11.8288 10.7403 11.9167 11 11.9167ZM11 20.1667C9.73194 20.1667 8.54028 19.926 7.425 19.4448C6.30972 18.9635 5.33958 18.3104 4.51458 17.4854C3.68958 16.6604 3.03646 15.6903 2.55521 14.575C2.07396 13.4597 1.83333 12.2681 1.83333 11C1.83333 9.73194 2.07396 8.54028 2.55521 7.425C3.03646 6.30972 3.68958 5.33958 4.51458 4.51458C5.33958 3.68958 6.30972 3.03646 7.425 2.55521C8.54028 2.07396 9.73194 1.83333 11 1.83333C12.2681 1.83333 13.4597 2.07396 14.575 2.55521C15.6903 3.03646 16.6604 3.68958 17.4854 4.51458C18.3104 5.33958 18.9635 6.30972 19.4448 7.425C19.926 8.54028 20.1667 9.73194 20.1667 11C20.1667 12.2681 19.926 13.4597 19.4448 14.575C18.9635 15.6903 18.3104 16.6604 17.4854 17.4854C16.6604 18.3104 15.6903 18.9635 14.575 19.4448C13.4597 19.926 12.2681 20.1667 11 20.1667Z" fill="var(--fill-0, #9AA7B2)"/>
</g>
</svg>
