<svg preserveAspectRatio="none" width="100%" height="100%" overflow="visible" style="display: block;" viewBox="0 0 324 160" fill="none" xmlns="http://www.w3.org/2000/svg">
<g id="Graphics" clip-path="url(#clip0_0_66)">
<path id="Star 1" d="M248.671 2.02911C249.612 -0.641431 253.388 -0.641434 254.329 2.0291L260.58 19.7666C261.129 21.3244 262.834 22.1454 264.394 21.6033L282.159 15.4312C284.834 14.5019 287.189 17.4546 285.687 19.8555L275.717 35.8016C274.841 37.202 275.262 39.0469 276.659 39.9287L292.561 49.9696C294.955 51.4814 294.115 55.1634 291.302 55.4867L272.618 57.6337C270.977 57.8222 269.797 59.3016 269.978 60.9433L272.043 79.6363C272.354 82.4507 268.951 84.0894 266.944 82.0916L253.617 68.8228C252.446 67.6575 250.554 67.6575 249.383 68.8228L236.056 82.0916C234.049 84.0894 230.646 82.4507 230.957 79.6363L233.022 60.9433C233.203 59.3016 232.023 57.8222 230.382 57.6337L211.698 55.4867C208.885 55.1634 208.045 51.4814 210.439 49.9696L226.341 39.9287C227.738 39.0469 228.159 37.202 227.283 35.8016L217.313 19.8555C215.811 17.4546 218.166 14.5019 220.841 15.4312L238.606 21.6033C240.166 22.1454 241.871 21.3244 242.42 19.7666L248.671 2.02911Z" fill="url(#paint0_linear_0_66)" fill-opacity="0.3"/>
<g id="Group 48096535">
<rect id="Rectangle 5234" x="75" y="26.7167" width="100.246" height="134.024" rx="11.2605" transform="rotate(-8.95781 75 26.7167)" fill="var(--fill-0, #E3E8EC)"/>
<rect id="Rectangle 5252" x="92.8078" y="59.5627" width="12.9331" height="33.8719" transform="rotate(-8.27619 92.8078 59.5627)" fill="var(--fill-0, #CBD5DC)"/>
<rect id="Rectangle 5253" x="111.296" y="71.1732" width="12.9331" height="19.7202" transform="rotate(-8.27619 111.296 71.1732)" fill="var(--fill-0, #9AA7B2)"/>
<rect id="Rectangle 5254" x="123.667" y="40.7045" width="12.9331" height="48.0906" transform="rotate(-8.27619 123.667 40.7045)" fill="var(--fill-0, #6E7C89)" fill-opacity="0.5"/>
<path id="Vector 799" d="M104.651 109.765L124.548 107.117" stroke="var(--stroke-0, #9AA7B2)" stroke-width="6.25581" stroke-linecap="round"/>
<path id="Vector 800" d="M107.035 127.66L133.563 124.13" stroke="var(--stroke-0, #9AA7B2)" stroke-width="6.25581" stroke-linecap="round"/>
<rect id="Rectangle 5235" x="155.731" width="100.246" height="134.024" rx="11.2605" transform="rotate(19.7327 155.731 0)" fill="var(--fill-0, #F2F5F6)"/>
<g id="Group 48096509">
<path id="Vector 796" d="M163.771 30.4684L221.084 51.0263" stroke="var(--stroke-0, #E3E8EC)" stroke-width="6.25581" stroke-linecap="round"/>
<path id="Vector 797" d="M157.7 47.3909L215.012 67.9488" stroke="var(--stroke-0, #E3E8EC)" stroke-width="6.25581" stroke-linecap="round"/>
<path id="Vector 798" d="M151.63 64.3138L208.943 84.8717" stroke="var(--stroke-0, #E3E8EC)" stroke-width="6.25581" stroke-linecap="round"/>
<path id="Vector 799_2" d="M145.559 81.2373L164.452 88.0143" stroke="var(--stroke-0, #E3E8EC)" stroke-width="6.25581" stroke-linecap="round"/>
<path id="Vector 800_2" d="M139.489 98.1597L164.68 107.196" stroke="var(--stroke-0, #E3E8EC)" stroke-width="6.25581" stroke-linecap="round"/>
</g>
<g id="Group 48096534">
<path id="Ellipse 663" d="M195.347 124.147C196.818 123.727 198.192 123.022 199.39 122.071C200.589 121.12 201.588 119.942 202.331 118.605C203.075 117.268 203.547 115.798 203.722 114.278C203.897 112.758 203.771 111.219 203.351 109.748L192.15 112.945L195.347 124.147Z" fill="var(--fill-0, #6E7C89)" fill-opacity="0.5"/>
<path id="Ellipse 664" d="M203.041 108.199C202.501 106.223 201.479 104.416 200.076 102.96C198.672 101.503 196.937 100.447 195.045 99.8989L192.342 111.119L203.041 108.199Z" fill="var(--fill-0, #E3E8EC)"/>
<path id="Ellipse 665" d="M193.972 124.662C192.071 125.171 190.08 125.243 188.147 124.872C186.214 124.5 184.391 123.696 182.814 122.518C181.237 121.341 179.948 119.821 179.043 118.073C178.138 116.326 177.641 114.396 177.589 112.428C177.538 110.461 177.933 108.508 178.745 106.715C179.557 104.922 180.765 103.337 182.278 102.079C183.791 100.82 185.57 99.9212 187.48 99.4491C189.391 98.9771 191.384 98.9444 193.309 99.3534L190.603 112.087L193.972 124.662Z" fill="var(--fill-0, #CBD5DC)"/>
</g>
</g>
<g id="Group 2147224362">
<path id="Ellipse 72" d="M66.5958 111.33C67.4749 116.734 64.041 121.004 58.9259 120.867C53.8109 120.729 49.1557 115.007 48.2766 109.602C47.3964 104.198 50.6273 101.159 55.7424 101.296C60.8574 101.433 65.7167 105.925 66.5958 111.33Z" fill="url(#paint1_linear_0_66)"/>
<path id="Ellipse 73" d="M81.2553 86.5034C85.3368 93.7409 83.2118 99.4425 79.2013 101.722C75.1909 104.001 69.3636 102.643 66.0754 96.1404C63.8554 91.2658 64.656 85.4032 68.6664 83.1242C73.5567 80.3451 78.4777 82.7328 81.2553 86.5034Z" fill="url(#paint2_linear_0_66)"/>
<path id="Ellipse 77" d="M101.594 87.5324C102.274 93.7539 98.4347 97.1952 94.5562 97.6928C90.6778 98.1903 87.1141 91.907 87.1222 86.7931C87.1304 81.6792 89.1492 78.0993 94.0115 77.4755C97.89 76.9779 100.547 80.7041 101.594 87.5324Z" fill="url(#paint3_linear_0_66)"/>
<ellipse id="Ellipse 75" cx="7.29878" cy="8.62973" rx="7.29878" ry="8.62973" transform="matrix(0.688229 -0.725493 0.582374 0.812921 104.551 94.2437)" fill="url(#paint4_linear_0_66)"/>
<path id="Vector 38" d="M115.288 114.393C88.2193 89.2745 73.1546 114.562 69.0058 130.345C62.9855 159.617 88.759 151.488 102.398 143.765C136.046 141.233 125.011 123.129 115.288 114.393Z" fill="url(#paint5_linear_0_66)"/>
</g>
<path id="Star 2" d="M30.2946 66.4158C30.3609 65.4743 31.5747 65.1403 32.1133 65.9154L34.4532 69.2827C34.7674 69.7348 35.3879 69.8479 35.8414 69.5358L39.219 67.2108C39.9964 66.6756 41.0143 67.4164 40.7441 68.3208L39.5704 72.2496C39.4128 72.7771 39.7112 73.3328 40.2381 73.4927L44.1617 74.6838C45.0648 74.958 45.1203 76.2157 44.2448 76.5683L40.4413 78.1002C39.9306 78.3059 39.6822 78.8857 39.8857 79.3973L41.4007 83.2076C41.7495 84.0846 40.8008 84.9121 39.9792 84.4475L36.4101 82.4289C35.9308 82.1579 35.3227 82.3252 35.0495 82.8032L33.0152 86.3634C32.5469 87.1829 31.3085 86.9571 31.1595 86.0251L30.5123 81.9761C30.4254 81.4324 29.9154 81.0613 29.3714 81.1458L25.3196 81.775C24.3869 81.9198 23.7912 80.8108 24.427 80.1132L27.1892 77.0827C27.5601 76.6758 27.5323 76.0457 27.127 75.673L24.1088 72.8975C23.414 72.2586 23.9097 71.1014 24.8515 71.1636L28.943 71.4336C29.4924 71.4699 29.9677 71.0553 30.0064 70.5061L30.2946 66.4158Z" fill="url(#paint6_linear_0_66)"/>
</g>
<defs>
<linearGradient id="paint0_linear_0_66" x1="213.786" y1="-6" x2="274.024" y2="62.619" gradientUnits="userSpaceOnUse">
<stop stop-color="#41D596"/>
</linearGradient>
<linearGradient id="paint1_linear_0_66" x1="45.733" y1="98.5969" x2="74.2067" y2="123.882" gradientUnits="userSpaceOnUse">
<stop stop-color="#11181D"/>
<stop offset="1" stop-color="#6A7A85"/>
</linearGradient>
<linearGradient id="paint2_linear_0_66" x1="57.629" y1="86.3298" x2="95.6729" y2="93.0912" gradientUnits="userSpaceOnUse">
<stop stop-color="#11181D"/>
<stop offset="1" stop-color="#6A7A85"/>
</linearGradient>
<linearGradient id="paint3_linear_0_66" x1="86.5318" y1="75.9044" x2="110.342" y2="93.1209" gradientUnits="userSpaceOnUse">
<stop stop-color="#11181D"/>
<stop offset="1" stop-color="#6A7A85"/>
</linearGradient>
<linearGradient id="paint4_linear_0_66" x1="-0.609659" y1="-2.15302" x2="20.7192" y2="17.8448" gradientUnits="userSpaceOnUse">
<stop stop-color="#11181D"/>
<stop offset="1" stop-color="#6A7A85"/>
</linearGradient>
<linearGradient id="paint5_linear_0_66" x1="54.8265" y1="110.462" x2="126.312" y2="164.021" gradientUnits="userSpaceOnUse">
<stop stop-color="#11181D"/>
<stop offset="1" stop-color="#6A7A85"/>
</linearGradient>
<linearGradient id="paint6_linear_0_66" x1="28.5506" y1="67.9038" x2="41.5379" y2="82.8592" gradientUnits="userSpaceOnUse">
<stop offset="1" stop-color="#6DC9EA"/>
</linearGradient>
<clipPath id="clip0_0_66">
<rect width="324" height="160" fill="white"/>
</clipPath>
</defs>
</svg>
