<svg preserveAspectRatio="none" width="100%" height="100%" overflow="visible" style="display: block;" viewBox="0 0 264 159" fill="none" xmlns="http://www.w3.org/2000/svg">
<g id="Group 2147224368">
<path id="Star 1" d="M213.623 5.10728C214.265 3.36059 216.735 3.36058 217.377 5.10728L224.7 25.0307C225.073 26.0451 226.184 26.5798 227.209 26.2383L247.98 19.3194C249.777 18.7209 251.322 20.723 250.287 22.3094L238.806 39.9148C238.188 40.862 238.478 42.1326 239.445 42.7182L257.74 53.794C259.375 54.7838 258.824 57.2835 256.924 57.4929L235.282 59.8773C234.18 59.9987 233.387 60.9929 233.514 62.0941L235.91 82.9007C236.125 84.7598 233.896 85.8684 232.543 84.5763L216.881 69.6267C216.108 68.8889 214.892 68.8889 214.119 69.6267L198.457 84.5763C197.103 85.8684 194.875 84.7598 195.089 82.9007L197.486 62.0941C197.613 60.9929 196.82 59.9987 195.718 59.8773L174.076 57.4929C172.176 57.2835 171.624 54.7838 173.259 53.794L191.554 42.7182C192.522 42.1326 192.812 40.862 192.194 39.9148L180.712 22.3094C179.678 20.723 181.223 18.7209 183.02 19.3194L203.79 26.2383C204.816 26.5798 205.927 26.0451 206.3 25.0307L213.623 5.10728Z" fill="url(#paint0_linear_0_57)" fill-opacity="0.2"/>
<g id="Group 2147224366">
<path id="Vector 3333" d="M188.225 65.4285H134.864C130.539 65.4285 127.635 60.9916 129.365 57.028L133.585 47.3613C134.539 45.175 136.698 43.7618 139.084 43.7618H183.45C185.733 43.7618 187.818 45.0575 188.829 47.1045L193.604 56.7711C195.574 60.7588 192.673 65.4285 188.225 65.4285Z" fill="url(#paint1_linear_0_57)"/>
<rect id="Rectangle 240656188" x="88.3605" y="61.857" width="146.855" height="87.1429" rx="6" fill="url(#paint2_linear_0_57)"/>
<rect id="Rectangle 240656190" x="88.3605" y="74.238" width="146.855" height="61.9048" fill="url(#paint3_linear_0_57)"/>
<path id="Vector 3334" d="M102.292 57.5711H96.8339C95.7293 57.5711 94.8339 58.4665 94.8339 59.5711V60.5711C94.8339 61.6757 95.7293 62.5711 96.8339 62.5711H102.292C103.397 62.5711 104.292 61.6757 104.292 60.5711V59.5711C104.292 58.4665 103.397 57.5711 102.292 57.5711Z" fill="var(--fill-0, #E3E8EC)"/>
<path id="Vector 3335" d="M115.081 58.7618H109.93C108.878 58.7618 108.025 59.6146 108.025 60.6666C108.025 61.7186 108.878 62.5714 109.93 62.5714H115.081C116.133 62.5714 116.986 61.7186 116.986 60.6666C116.986 59.6146 116.133 58.7618 115.081 58.7618Z" fill="var(--fill-0, #E3E8EC)"/>
<rect id="Rectangle 240656189" x="120.718" y="107.095" width="78.6546" height="41.9048" fill="var(--fill-0, black)" fill-opacity="0.1"/>
<ellipse id="Ellipse 6676" cx="160.045" cy="105.19" rx="39.3273" ry="37.6191" fill="url(#paint4_linear_0_57)"/>
<ellipse id="Ellipse 6677" cx="160.046" cy="105.19" rx="30.3667" ry="29.0476" fill="var(--fill-0, #9AA7B2)"/>
<circle id="Ellipse 6678" cx="160.047" cy="105.191" r="27.7523" fill="url(#paint5_linear_0_57)"/>
</g>
<path id="Star 2" d="M80.7597 115.047C81.4025 113.302 83.8703 113.302 84.5131 115.047L87.1838 122.296C87.557 123.309 88.6668 123.843 89.6913 123.503L97.2373 120.995C99.035 120.397 100.579 122.401 99.5422 123.987L95.4928 130.182C94.8732 131.13 95.1635 132.403 96.1328 132.988L102.574 136.879C104.211 137.868 103.66 140.37 101.758 140.579L94.036 141.428C92.9338 141.549 92.1405 142.544 92.2677 143.645L93.1266 151.085C93.3411 152.943 91.115 154.052 89.7605 152.762L84.0157 147.291C83.2432 146.556 82.0295 146.556 81.2571 147.291L75.5122 152.762C74.1577 154.052 71.9316 152.943 72.1461 151.085L73.005 143.645C73.1322 142.544 72.339 141.549 71.2368 141.428L63.5143 140.579C61.6131 140.37 61.0616 137.868 62.6988 136.879L69.1399 132.988C70.1093 132.403 70.3996 131.13 69.78 130.182L65.7306 123.987C64.6941 122.401 66.2378 120.397 68.0354 120.995L75.5814 123.503C76.6059 123.843 77.7157 123.309 78.0889 122.296L80.7597 115.047Z" fill="url(#paint6_linear_0_57)"/>
<path id="Star 3" d="M47.3371 19.7655C48.7283 18.659 50.7636 19.7815 50.5702 21.5484L49.3679 32.5299C49.2688 33.4347 49.7932 34.2923 50.6437 34.6164L61.3372 38.692C63.0495 39.3446 63.0557 41.7648 61.3467 42.4261L51.3202 46.3062C50.4158 46.6562 49.8928 47.6046 50.0793 48.5562L52.1478 59.1065C52.5004 60.9047 50.4503 62.1908 48.9847 61.0909L39.8318 54.2217C39.1039 53.6753 38.0988 53.6895 37.3864 54.256L28.7404 61.1325C27.3493 62.2389 25.3139 61.1165 25.5074 59.3495L26.7096 48.368C26.8087 47.4632 26.2843 46.6056 25.4338 46.2815L14.7403 42.2059C13.028 41.5533 13.0219 39.1332 14.7308 38.4718L24.7574 34.5917C25.6618 34.2417 26.1848 33.2933 25.9982 32.3417L23.9297 21.7914C23.5771 19.9932 25.6273 18.7071 27.0928 19.807L36.2457 26.6762C36.9737 27.2226 37.9788 27.2085 38.6911 26.6419L47.3371 19.7655Z" fill="var(--fill-0, #FDD12F)"/>
<path id="Star 4" d="M245.712 82.8778C246.612 81.859 248.294 82.4667 248.335 83.8254L248.515 89.754C248.536 90.4505 249.034 91.0408 249.717 91.1788L255.539 92.3555C256.873 92.6252 257.187 94.3894 256.028 95.1031L250.987 98.2072C250.392 98.5736 250.129 99.3024 250.353 99.9644L252.247 105.573C252.682 106.863 251.313 108.019 250.115 107.374L244.885 104.559C244.271 104.229 243.511 104.365 243.049 104.887L239.123 109.332C238.223 110.351 236.54 109.744 236.499 108.385L236.32 102.456C236.298 101.76 235.8 101.169 235.117 101.031L229.295 99.8547C227.961 99.5851 227.647 97.8209 228.806 97.1072L233.847 94.003C234.442 93.6366 234.705 92.9079 234.482 92.2458L232.588 86.6369C232.152 85.3473 233.521 84.1911 234.72 84.8361L239.95 87.6512C240.564 87.9814 241.324 87.8456 241.785 87.3233L245.712 82.8778Z" fill="var(--fill-0, #FC88E4)"/>
</g>
<defs>
<linearGradient id="paint0_linear_0_57" x1="178.547" y1="5.11415e-07" x2="235.133" y2="58.679" gradientUnits="userSpaceOnUse">
<stop stop-color="#41D596"/>
</linearGradient>
<linearGradient id="paint1_linear_0_57" x1="161.789" y1="43.7618" x2="161.789" y2="65.4285" gradientUnits="userSpaceOnUse">
<stop stop-color="#E3E8EC"/>
<stop offset="1" stop-color="#E2E2E2"/>
</linearGradient>
<linearGradient id="paint2_linear_0_57" x1="161.788" y1="149" x2="161.788" y2="61.857" gradientUnits="userSpaceOnUse">
<stop stop-color="#F2F5F6"/>
<stop offset="1" stop-color="#E9F5EE"/>
</linearGradient>
<linearGradient id="paint3_linear_0_57" x1="161.788" y1="74.238" x2="161.788" y2="136.143" gradientUnits="userSpaceOnUse">
<stop stop-color="#363636"/>
<stop offset="1" stop-color="#363636" stop-opacity="0.8"/>
</linearGradient>
<linearGradient id="paint4_linear_0_57" x1="160.045" y1="67.5711" x2="160.045" y2="142.809" gradientUnits="userSpaceOnUse">
<stop stop-color="#95A2AE"/>
<stop offset="1" stop-color="#BCBCBC"/>
</linearGradient>
<linearGradient id="paint5_linear_0_57" x1="160.047" y1="77.4384" x2="160.047" y2="132.943" gradientUnits="userSpaceOnUse">
<stop stop-color="white"/>
<stop offset="1" stop-color="#E3E8EC"/>
</linearGradient>
<linearGradient id="paint6_linear_0_57" x1="76.6626" y1="116.857" x2="92.3993" y2="151.211" gradientUnits="userSpaceOnUse">
<stop stop-color="#9AE6E3"/>
<stop offset="1" stop-color="#6DC9EA"/>
</linearGradient>
</defs>
</svg>
