<svg preserveAspectRatio="none" width="100%" height="100%" overflow="visible" style="display: block;" viewBox="0 0 15.2483 14.4428" fill="none" xmlns="http://www.w3.org/2000/svg">
<g id="Logo">
<path id="Ellipse 72" d="M3.64742 5.52711C3.46559 6.61167 2.55874 7.19816 1.62191 6.83706C0.685083 6.47596 0.189178 5.08352 0.371009 3.99895C0.552612 2.91439 1.34355 2.54842 2.28038 2.90951C3.21721 3.27061 3.82926 4.44255 3.64742 5.52711Z" fill="var(--fill-0, white)"/>
<path id="Ellipse 73" d="M7.93855 1.76922C8.23189 3.41192 7.47578 4.3562 6.58919 4.52661C5.7026 4.69702 4.7119 4.05727 4.51834 2.60629C4.41856 1.53455 4.9401 0.472915 5.82669 0.302505C6.90778 0.0947085 7.66532 0.870772 7.93855 1.76922Z" fill="var(--fill-0, white)"/>
<path id="Ellipse 77" d="M11.6327 3.29694C11.362 4.52379 10.433 4.92628 9.68434 4.76679C8.93567 4.60731 8.67723 3.17985 9.00459 2.20859C9.33194 1.23733 9.93324 0.689264 10.8718 0.889206C11.6205 1.04869 11.8742 1.93079 11.6327 3.29694Z" fill="var(--fill-0, white)"/>
<ellipse id="Ellipse 75" cx="1.43575" cy="1.73079" rx="1.43575" ry="1.73079" transform="matrix(0.881762 -0.471694 0.278521 0.96043 11.7522 4.76639)" fill="var(--fill-0, white)"/>
<path id="Vector 38" d="M12.4528 9.29858C9.04935 2.75231 4.65325 6.57097 2.88063 9.29858C-0.0973771 14.4667 5.18503 14.6102 8.19849 14.036C14.5799 15.7587 13.6936 11.5955 12.4528 9.29858Z" fill="var(--fill-0, white)"/>
</g>
</svg>
