<svg preserveAspectRatio="none" width="100%" height="100%" overflow="visible" style="display: block;" viewBox="0 0 30 30" fill="none" xmlns="http://www.w3.org/2000/svg">
<g id="NoticeCircleIcon">
<path id="Vector" d="M15 21.25C15.3542 21.25 15.651 21.1302 15.8906 20.8906C16.1302 20.651 16.25 20.3542 16.25 20C16.25 19.6458 16.1302 19.349 15.8906 19.1094C15.651 18.8698 15.3542 18.75 15 18.75C14.6458 18.75 14.349 18.8698 14.1094 19.1094C13.8698 19.349 13.75 19.6458 13.75 20C13.75 20.3542 13.8698 20.651 14.1094 20.8906C14.349 21.1302 14.6458 21.25 15 21.25ZM15 16.25C15.3542 16.25 15.651 16.1302 15.8906 15.8906C16.1302 15.651 16.25 15.3542 16.25 15V10C16.25 9.64583 16.1302 9.34896 15.8906 9.10937C15.651 8.86979 15.3542 8.75 15 8.75C14.6458 8.75 14.349 8.86979 14.1094 9.10937C13.8698 9.34896 13.75 9.64583 13.75 10V15C13.75 15.3542 13.8698 15.651 14.1094 15.8906C14.349 16.1302 14.6458 16.25 15 16.25ZM15 27.5C13.2708 27.5 11.6458 27.1719 10.125 26.5156C8.60417 25.8594 7.28125 24.9687 6.15625 23.8437C5.03125 22.7187 4.14062 21.3958 3.48437 19.875C2.82812 18.3542 2.5 16.7292 2.5 15C2.5 13.2708 2.82812 11.6458 3.48437 10.125C4.14062 8.60417 5.03125 7.28125 6.15625 6.15625C7.28125 5.03125 8.60417 4.14062 10.125 3.48437C11.6458 2.82812 13.2708 2.5 15 2.5C16.7292 2.5 18.3542 2.82812 19.875 3.48437C21.3958 4.14062 22.7187 5.03125 23.8437 6.15625C24.9687 7.28125 25.8594 8.60417 26.5156 10.125C27.1719 11.6458 27.5 13.2708 27.5 15C27.5 16.7292 27.1719 18.3542 26.5156 19.875C25.8594 21.3958 24.9687 22.7187 23.8437 23.8437C22.7187 24.9687 21.3958 25.8594 19.875 26.5156C18.3542 27.1719 16.7292 27.5 15 27.5Z" fill="var(--fill-0, #FD7565)"/>
</g>
</svg>
