<svg preserveAspectRatio="none" width="100%" height="100%" overflow="visible" style="display: block;" viewBox="0 0 115 139" fill="none" xmlns="http://www.w3.org/2000/svg">
<path id="Vector" d="M57.5 139C55.8229 139 54.1458 138.7 52.4688 138.101C50.7917 137.501 49.2943 136.602 47.9766 135.404C40.1901 128.211 33.3021 121.198 27.3125 114.365C21.3229 107.532 16.3216 100.908 12.3086 94.4948C8.29557 88.0813 5.24089 81.9075 3.14453 75.9735C1.04818 70.0395 0 64.3752 0 58.9806C0 40.9987 5.77995 26.6731 17.3398 16.0039C28.8997 5.33463 42.2865 0 57.5 0C72.7135 0 86.1003 5.33463 97.6602 16.0039C109.22 26.6731 115 40.9987 115 58.9806C115 64.3752 113.952 70.0395 111.855 75.9735C109.759 81.9075 106.704 88.0813 102.691 94.4948C98.6784 100.908 93.6771 107.532 87.6875 114.365C81.6979 121.198 74.8099 128.211 67.0234 135.404C65.7057 136.602 64.2083 137.501 62.5313 138.101C60.8542 138.7 59.1771 139 57.5 139ZM57.5 71.9276C61.4531 71.9276 64.8372 70.519 67.6523 67.7018C70.4675 64.8846 71.875 61.4981 71.875 57.542C71.875 53.586 70.4675 50.1994 67.6523 47.3823C64.8372 44.5651 61.4531 43.1565 57.5 43.1565C53.5469 43.1565 50.1628 44.5651 47.3477 47.3823C44.5326 50.1994 43.125 53.586 43.125 57.542C43.125 61.4981 44.5326 64.8846 47.3477 67.7018C50.1628 70.519 53.5469 71.9276 57.5 71.9276Z" fill="var(--fill-0, #41D596)"/>
</svg>
